# xmcd
#
# Track frame offsets:
#        150
#        21317
#        41962
#        61565
#
# Disc length: 1064 seconds
#
# Revision: 11
# Processed by: cddbd v1.5.2PL0 Copyright (c) Steve Scherf et al.
# Submitted via: ExactAudioCopy v0.99pb5
#
DISCID=2d042604
DTITLE=Celine Dion / My Heart Will Go On
DYEAR=1997
DGENRE=Pop
TTITLE0=My Heart Will Go On (Love Theme From 'Titanic')
TTITLE1=Because You Loved Me (Theme From 'Up Close & Personal')
TTITLE2=When I Fall In Love (With Clive Griffin)
TTITLE3=Beauty And The Beast (With Peabo Bryson)
EXTD=
EXTT0=
EXTT1=
EXTT2=
EXTT3=
PLAYORDER=
.
